<svg width="65" height="65" viewBox="0 0 65 65" fill="none" xmlns="http://www.w3.org/2000/svg">
<g style="mix-blend-mode:multiply">
<path d="M58.9958 22.1917V42.1417C58.9958 45.4083 57.2458 48.4417 54.4167 50.1042L37.0917 60.1083C34.2625 61.7417 30.7625 61.7417 27.9042 60.1083L10.5792 50.1042C9.18435 49.2954 8.0269 48.1339 7.22311 46.7362C6.41932 45.3386 5.9975 43.754 6.00001 42.1417V22.1917C6.00001 18.925 7.75001 15.8917 10.5792 14.2292L27.9042 4.225C30.7333 2.59167 34.2333 2.59167 37.0917 4.225L54.4167 14.2292C57.2458 15.8917 58.9958 18.8958 58.9958 22.1917Z" stroke="black" stroke-width="1.5" stroke-linecap="round" stroke-linejoin="round"/>
<path d="M46.1125 53.7438C46.1125 47.4333 39.8292 42.2875 32.0562 42.2875C24.2833 42.2875 18 47.4063 18 53.7438M32.0562 36.2208C34.0747 36.2208 36.0104 35.419 37.4376 33.9918C38.8649 32.5646 39.6667 30.6288 39.6667 28.6104C39.6667 26.592 38.8649 24.6563 37.4376 23.229C36.0104 21.8018 34.0747 21 32.0562 21C30.0378 21 28.1021 21.8018 26.6749 23.229C25.2476 24.6563 24.4458 26.592 24.4458 28.6104C24.4458 30.6288 25.2476 32.5646 26.6749 33.9918C28.1021 35.419 30.0378 36.2208 32.0562 36.2208V36.2208Z" stroke="black" stroke-width="1.5" stroke-linecap="round" stroke-linejoin="round"/>
<path d="M61.6667 51.8334C61.6667 52.7 61.5584 53.5396 61.3417 54.3521C61.0979 55.4354 60.6646 56.4917 60.0959 57.4125C58.7959 59.6063 56.7104 61.3125 54.2188 62.0979C53.1625 62.4771 52.025 62.6667 50.8334 62.6667C48.1669 62.6745 45.595 61.6787 43.6292 59.8771C42.8167 59.1729 42.1125 58.3334 41.5709 57.4125C40.5399 55.7345 39.996 53.8028 40 51.8334C40 50.6417 40.1896 49.5042 40.5417 48.4209C41.2574 46.2579 42.6376 44.376 44.4856 43.0435C46.3336 41.711 48.5551 40.9959 50.8334 41C54.0292 41 56.9271 42.3813 58.8771 44.6021C60.6104 46.525 61.6667 49.0709 61.6667 51.8334ZM54.8688 51.7792H46.7979H54.8688ZM50.8334 47.825V55.9229V47.825Z" fill="#F8F8F8"/>
<path d="M54.8688 51.7792H46.7979M50.8334 47.825V55.9229M61.6667 51.8334C61.6667 52.7 61.5584 53.5396 61.3417 54.3521C61.0979 55.4354 60.6646 56.4917 60.0959 57.4125C58.7959 59.6063 56.7104 61.3125 54.2188 62.0979C53.1625 62.4771 52.025 62.6667 50.8334 62.6667C48.1669 62.6745 45.595 61.6787 43.6292 59.8771C42.8167 59.1729 42.1125 58.3334 41.5709 57.4125C40.5399 55.7345 39.996 53.8028 40 51.8334C40 50.6417 40.1896 49.5042 40.5417 48.4209C41.2574 46.2579 42.6376 44.376 44.4856 43.0435C46.3336 41.711 48.5551 40.9959 50.8334 41C54.0292 41 56.9271 42.3813 58.8771 44.6021C60.6104 46.525 61.6667 49.0709 61.6667 51.8334Z" stroke="black" stroke-width="1.5" stroke-miterlimit="10" stroke-linecap="round" stroke-linejoin="round"/>
</g>
</svg>
