<svg width="25" height="24" viewBox="0 0 25 24" fill="none" xmlns="http://www.w3.org/2000/svg">
<path fill-rule="evenodd" clip-rule="evenodd" d="M22.8665 6.45846C24.3089 3.70251 21.3822 0.717064 18.605 2.10565L14.6037 4.1063C13.2811 4.76761 11.7235 4.76761 10.4008 4.1063L6.39952 2.10565C3.61696 0.714364 0.687374 3.70717 2.13737 6.45716L9.67097 20.771C10.8718 23.0525 14.1328 23.0525 15.3335 20.771L22.8665 6.45846C22.8666 6.45826 22.8664 6.45865 22.8665 6.45846ZM17.9342 0.764005C22.0233 -1.28054 26.3085 3.11863 24.195 7.15488L16.6609 21.4696C14.8978 24.8196 10.1067 24.8196 8.34359 21.4696L0.810515 7.15677C-1.3203 3.11454 2.98662 -1.27786 7.07034 0.764005L11.0717 2.76466C11.972 3.21483 13.0325 3.21483 13.9329 2.76466L17.9342 0.764005Z" fill="#858585"/>
</svg>
