<svg width="24" height="24" viewBox="0 0 24 24" fill="none" xmlns="http://www.w3.org/2000/svg">
<path d="M19.981 4.66034C20.5938 5.27316 21.1109 5.94344 21.5322 6.67117C22.1259 7.60956 22.5664 8.66286 22.8153 9.71615C23.4473 12.1866 23.1792 14.8677 21.9727 17.185C21.4939 18.2 20.8236 19.1383 19.981 19.981C18.101 21.872 15.5783 22.9864 12.9143 23.1026C11.8419 23.1792 10.7503 23.0834 9.71616 22.8153C7.80063 22.3578 6.05011 21.3764 4.66035 19.981C3.81772 19.1383 3.14744 18.2 2.63037 17.185C1.607 15.1494 1.2523 12.8428 1.6168 10.5939C1.98131 8.34491 3.04643 6.26841 4.66035 4.66034C6.92015 2.40054 9.94597 1.3281 12.8952 1.51961C15.4806 1.65366 18.0276 2.70696 19.981 4.66034ZM15.1358 9.42889L9.4289 15.1358L15.1358 9.42889ZM9.48635 9.48634L15.2124 15.2124L9.48635 9.48634Z" fill="#F8F8F8" fill-opacity="0.5"/>
<path d="M15.1358 9.42889L9.4289 15.1358M9.48635 9.48634L15.2124 15.2124M19.981 4.66034C20.5938 5.27316 21.1109 5.94344 21.5322 6.67117C22.1259 7.60956 22.5664 8.66286 22.8153 9.71615C23.4473 12.1866 23.1792 14.8677 21.9727 17.185C21.4939 18.2 20.8236 19.1383 19.981 19.981C18.101 21.872 15.5783 22.9864 12.9143 23.1026C11.8419 23.1792 10.7503 23.0834 9.71616 22.8153C7.80063 22.3578 6.05011 21.3764 4.66035 19.981C3.81772 19.1383 3.14744 18.2 2.63037 17.185C1.607 15.1494 1.2523 12.8428 1.6168 10.5939C1.98131 8.34491 3.04643 6.26841 4.66035 4.66034C6.92015 2.40054 9.94597 1.3281 12.8952 1.51961C15.4806 1.65366 18.0276 2.70696 19.981 4.66034Z" stroke="black" stroke-opacity="0.5" stroke-width="1.5" stroke-miterlimit="10" stroke-linecap="round" stroke-linejoin="round"/>
</svg>
