<svg width="34" height="34" viewBox="0 0 34 34" fill="none" xmlns="http://www.w3.org/2000/svg">
<g clip-path="url(#clip0_63_805)">
<path d="M24.6014 24.6014C20.4082 28.7945 13.5917 28.7945 9.39858 24.6014C5.20543 20.4083 5.20543 13.5917 9.39858 9.3986C13.5917 5.20546 20.4082 5.20546 24.6014 9.3986C28.7945 13.5917 28.7945 20.4083 24.6014 24.6014ZM10.4592 10.4593C6.85299 14.0655 6.85299 19.9345 10.4592 23.5407C14.0655 27.147 19.9345 27.147 23.5407 23.5407C27.147 19.9345 27.147 14.0655 23.5407 10.4593C19.9345 6.85302 14.0655 6.85302 10.4592 10.4593Z" fill="black"/>
<path d="M20.3587 14.7019L14.7019 20.3588C14.412 20.6487 13.9311 20.6487 13.6412 20.3588C13.3513 20.0688 13.3513 19.588 13.6412 19.2981L19.2981 13.6412C19.588 13.3513 20.0688 13.3513 20.3587 13.6412C20.6487 13.9312 20.6487 14.412 20.3587 14.7019Z" fill="black"/>
<path d="M20.3587 20.3588C20.0688 20.6487 19.588 20.6487 19.2981 20.3588L13.6412 14.7019C13.3513 14.412 13.3513 13.9312 13.6412 13.6412C13.9311 13.3513 14.412 13.3513 14.7019 13.6412L20.3587 19.2981C20.6487 19.588 20.6487 20.0688 20.3587 20.3588Z" fill="black"/>
</g>
<defs>
<clipPath id="clip0_63_805">
<rect width="24" height="24" fill="white" transform="translate(0.0294189 17) rotate(-45)"/>
</clipPath>
</defs>
</svg>
