<svg width="30" height="30" viewBox="0 0 22 20" fill="none" xmlns="http://www.w3.org/2000/svg">
<path fill-rule="evenodd" clip-rule="evenodd" d="M15.4393 0.250001L15.44 0.25C18.9277 0.25 21.75 3.0893 21.75 6.59C21.75 10.3395 20.0107 13.3001 17.9342 15.4276C15.8683 17.5443 13.4235 18.8861 11.8657 19.4186C11.5914 19.5147 11.2773 19.55 11 19.55C10.7227 19.55 10.4086 19.5147 10.1343 19.4186C8.57655 18.8861 6.13169 17.5443 4.06577 15.4276C1.98932 13.3001 0.25 10.3395 0.25 6.59C0.25 3.0893 3.07229 0.25 6.56 0.25C8.29637 0.25 9.86391 0.955691 10.9996 2.094C11.4712 1.62142 12.0166 1.22563 12.6162 0.923134C13.4918 0.481397 14.4586 0.250863 15.4393 0.250001ZM6.56 1.75C3.90771 1.75 1.75 3.9107 1.75 6.59C1.75 9.84052 3.25068 12.4449 5.13923 14.3799C7.03683 16.3242 9.27995 17.542 10.6223 18.0002L10.6296 18.0027L10.6296 18.0028C10.6944 18.0256 10.8286 18.05 11 18.05C11.1714 18.05 11.3056 18.0256 11.3704 18.0028L11.3777 18.0002L11.3777 18.0002C12.7201 17.542 14.9632 16.3242 16.8608 14.3799C18.7493 12.4449 20.25 9.84052 20.25 6.59C20.25 3.91081 18.0925 1.75018 15.4403 1.75C14.694 1.75071 13.9582 1.92618 13.2918 2.26235C12.6254 2.59858 12.0469 3.08622 11.6028 3.6862C11.4615 3.87712 11.2381 3.98981 11.0006 3.99C10.7631 3.99019 10.5395 3.87785 10.3979 3.68716C9.52255 2.5085 8.13147 1.75 6.56 1.75Z" fill="black"/>
</svg>
