<svg width="25" height="29" viewBox="0 0 25 29" fill="none" xmlns="http://www.w3.org/2000/svg">
<g filter="url(#filter0_d_63_636)">
<path fill-rule="evenodd" clip-rule="evenodd" d="M18.6414 6.82006C21.4557 8.30125 21.4557 12.3263 18.6414 13.8074L7.05002 19.9082C3.65995 21.6833 -0.0366459 18.0842 1.68129 14.6483L3.30128 11.4083C3.64571 10.7195 3.64571 9.90801 3.30128 9.21916L1.68129 5.97916C-0.0339622 2.54866 3.65536 -1.07004 7.05142 0.720061L18.6414 6.82006ZM17.9428 12.4801C19.6885 11.5612 19.6885 9.06625 17.9428 8.14744L6.3528 2.04744C4.24899 0.938156 1.95826 3.179 3.02293 5.30834L4.64293 8.54834C5.1985 9.65948 5.1985 10.968 4.64293 12.0792L3.02293 15.3192C1.96097 17.4431 4.24378 19.6837 6.35352 18.5797C6.35375 18.5796 6.3533 18.5798 6.35352 18.5797L17.9428 12.4801Z" fill="black"/>
</g>
<defs>
<filter id="filter0_d_63_636" x="-2.75383" y="0.246399" width="27.5059" height="28.1304" filterUnits="userSpaceOnUse" color-interpolation-filters="sRGB">
<feFlood flood-opacity="0" result="BackgroundImageFix"/>
<feColorMatrix in="SourceAlpha" type="matrix" values="0 0 0 0 0 0 0 0 0 0 0 0 0 0 0 0 0 0 127 0" result="hardAlpha"/>
<feOffset dy="4"/>
<feGaussianBlur stdDeviation="2"/>
<feComposite in2="hardAlpha" operator="out"/>
<feColorMatrix type="matrix" values="0 0 0 0 0 0 0 0 0 0 0 0 0 0 0 0 0 0 0.25 0"/>
<feBlend mode="normal" in2="BackgroundImageFix" result="effect1_dropShadow_63_636"/>
<feBlend mode="normal" in="SourceGraphic" in2="effect1_dropShadow_63_636" result="shape"/>
</filter>
</defs>
</svg>
