<svg width="64" height="65" viewBox="0 0 64 65" fill="none" xmlns="http://www.w3.org/2000/svg">
<path fill-rule="evenodd" clip-rule="evenodd" d="M28.2792 4.87453C28.2791 4.87454 28.2792 4.87452 28.2792 4.87453L10.9592 14.8758C10.9584 14.8763 10.9576 14.8767 10.9567 14.8772C8.35573 16.4068 6.75001 19.1947 6.75001 22.1917L6.75001 42.1428C6.7477 43.6235 7.13509 45.0788 7.87327 46.3623C8.61125 47.6456 9.67386 48.7121 10.9544 49.4548C10.9547 49.455 10.955 49.4551 10.9554 49.4553L28.2763 59.4571C28.2769 59.4575 28.2775 59.4578 28.2781 59.4582C30.9067 60.9594 34.1213 60.9571 36.7166 59.4588C36.7167 59.4588 36.7166 59.4588 36.7166 59.4588L54.0367 49.4575C54.0375 49.4571 54.0383 49.4566 54.039 49.4562C56.6401 47.9266 58.2458 45.1386 58.2458 42.1417V22.1917C58.2458 19.1668 56.6412 16.4073 54.039 14.8771C54.0382 14.8767 54.0375 14.8762 54.0367 14.8758L36.7196 4.87618C36.7191 4.87592 36.7187 4.87566 36.7182 4.8754C34.0895 3.37394 30.8746 3.37613 28.2792 4.87453ZM27.5292 3.57547C30.5916 1.80749 34.3761 1.80941 37.4638 3.57382L37.4667 3.5755L54.7967 13.5825C57.8514 15.3776 59.7458 18.6257 59.7458 22.1917V42.1417C59.7458 45.6771 57.8526 48.9551 54.7967 50.7508L54.7917 50.7537L37.4667 60.7578C34.4043 62.5258 30.6198 62.5239 27.5321 60.7595L27.5291 60.7578L10.2041 50.7537L10.203 50.753C8.6943 49.8783 7.44236 48.6219 6.57296 47.1101C5.70366 45.5985 5.2474 43.8848 5.25001 42.1411C5.25001 42.1409 5.25001 42.1413 5.25001 42.1411L5.25001 22.1917C5.25001 18.6562 7.1433 15.3783 10.1992 13.5825L10.2041 13.5797L27.5292 3.57547Z" fill="black"/>
<path fill-rule="evenodd" clip-rule="evenodd" d="M19.8328 21.7682C20.2461 21.7396 20.6042 22.0514 20.6329 22.4646L20.9352 26.8316C21.5847 25.6928 22.4089 24.5558 23.4823 23.4824C28.8583 18.1064 37.5681 18.1064 42.9441 23.4824C48.3201 28.8584 48.3201 37.5681 42.9441 42.9441C37.5681 48.3201 28.8583 48.3201 23.4823 42.9441C21.4848 40.9465 20.2277 38.4769 19.7116 35.8966C19.6304 35.4904 19.8938 35.0953 20.3 35.014C20.7062 34.9328 21.1013 35.1962 21.1825 35.6024C21.6427 37.9035 22.7627 40.1031 24.543 41.8834C29.3332 46.6736 37.0932 46.6736 41.8834 41.8834C46.6736 37.0932 46.6736 29.3332 41.8834 24.543C37.0932 19.7528 29.3332 19.7528 24.543 24.543C23.4761 25.61 22.6796 26.7484 22.0621 27.8921C22.017 27.9757 21.9584 28.0472 21.8903 28.1055L26.412 27.3997C26.8213 27.3358 27.2048 27.6158 27.2687 28.0251C27.3326 28.4343 27.0526 28.8179 26.6434 28.8818L20.4655 29.8461C20.452 29.8483 20.4384 29.8502 20.4247 29.8517C20.2201 29.8749 20.0239 29.8128 19.8732 29.6927C19.7872 29.6241 19.716 29.5366 19.6666 29.4352C19.63 29.3601 19.6054 29.2777 19.5957 29.1903C19.5941 29.1766 19.5929 29.1629 19.5921 29.1493L19.1364 22.5682C19.1078 22.155 19.4196 21.7968 19.8328 21.7682ZM21.0327 28.2394L21.1111 28.2271C21.0891 28.2178 21.0673 28.2074 21.0459 28.1958C21.0402 28.1928 21.0346 28.1897 21.0291 28.1865L21.0327 28.2394Z" fill="black"/>
</svg>
