<svg width="25" height="25" viewBox="0 0 25 25" fill="none" xmlns="http://www.w3.org/2000/svg">
<g clip-path="url(#clip0_21_118)">
<path fill-rule="evenodd" clip-rule="evenodd" d="M2.09914 22.9009C0.563781 21.3655 -0.0357056 19.0561 -0.0357056 16.0357L-0.0357056 8.96428C-0.0357056 5.94387 0.563781 3.63449 2.09914 2.09912C3.6345 0.563763 5.94389 -0.0357246 8.96429 -0.0357246H16.0357C19.0561 -0.0357246 21.3655 0.563763 22.9009 2.09912C24.4362 3.63449 25.0357 5.94387 25.0357 8.96428V16.0357C25.0357 19.0561 24.4362 21.3655 22.9009 22.9009C21.3655 24.4362 19.0561 25.0357 16.0357 25.0357H8.96429C5.94389 25.0357 3.6345 24.4362 2.09914 22.9009ZM3.1598 21.8402C4.27623 22.9566 6.09184 23.5357 8.96429 23.5357H16.0357C18.9082 23.5357 20.7238 22.9566 21.8402 21.8402C22.9566 20.7238 23.5357 18.9082 23.5357 16.0357V8.96428C23.5357 6.09182 22.9566 4.27621 21.8402 3.15978C20.7238 2.04336 18.9082 1.46428 16.0357 1.46428H8.96429C6.09184 1.46428 4.27623 2.04336 3.1598 3.15978C2.04338 4.27621 1.46429 6.09182 1.46429 8.96428L1.46429 16.0357C1.46429 18.9082 2.04338 20.7238 3.1598 21.8402Z" fill="black" fill-opacity="0.5"/>
<path fill-rule="evenodd" clip-rule="evenodd" d="M4.96429 16.99C4.96429 16.5758 5.30008 16.24 5.71429 16.24H10C10.4142 16.24 10.75 16.5758 10.75 16.99C10.75 17.4043 10.4142 17.74 10 17.74H5.71429C5.30008 17.74 4.96429 17.4043 4.96429 16.99ZM4.96429 8.72424C4.96429 8.31003 5.30008 7.97424 5.71429 7.97424H7.17961C7.22464 7.74355 7.29049 7.51709 7.37665 7.29794C7.55488 6.84464 7.81707 6.43031 8.15003 6.07954C8.48307 5.72868 8.88058 5.44816 9.32095 5.256C9.76143 5.06379 10.235 4.96429 10.7143 4.96429C11.1936 4.96429 11.6672 5.06379 12.1076 5.256C12.548 5.44816 12.9455 5.72868 13.2786 6.07954C13.6115 6.43031 13.8737 6.84464 14.0519 7.29794C14.2301 7.7512 14.3214 8.23575 14.3214 8.72424C14.3214 9.7092 13.9504 10.6612 13.2786 11.3689C12.6055 12.078 11.684 12.4842 10.7143 12.4842C9.74464 12.4842 8.82313 12.078 8.15003 11.3689C7.65102 10.8432 7.31796 10.1828 7.17962 9.47424H5.71429C5.30008 9.47424 4.96429 9.13846 4.96429 8.72424ZM8.60715 8.72424C8.60715 9.33586 8.83815 9.91508 9.23795 10.3363C9.63649 10.7561 10.1684 10.9842 10.7143 10.9842C11.2602 10.9842 11.7921 10.7561 12.1906 10.3363C12.5904 9.91508 12.8214 9.33586 12.8214 8.72424C12.8214 8.42219 12.7649 8.12393 12.656 7.84682C12.547 7.56975 12.3883 7.32045 12.1906 7.11222C11.9931 6.90408 11.7606 6.74118 11.5077 6.63081C11.2549 6.52049 10.9854 6.46429 10.7143 6.46429C10.4432 6.46429 10.1737 6.52049 9.92087 6.63081C9.66795 6.74118 9.43553 6.90408 9.23795 7.11222C9.04029 7.32045 8.88156 7.56975 8.77262 7.84682C8.66367 8.12393 8.60715 8.42219 8.60715 8.72424ZM12.4357 19.6347C11.7639 18.927 11.3929 17.975 11.3929 16.99C11.3929 16.5015 11.4842 16.017 11.6624 15.5637C11.8406 15.1104 12.1028 14.6961 12.4357 14.3453C12.7688 13.9945 13.1663 13.714 13.6067 13.5218C14.0471 13.3296 14.5207 13.2301 15 13.2301C15.4793 13.2301 15.9529 13.3296 16.3933 13.5218C16.8337 13.714 17.2312 13.9945 17.5643 14.3453C17.8972 14.6961 18.1594 15.1104 18.3377 15.5637C18.4238 15.7829 18.4897 16.0094 18.5347 16.24H20C20.4142 16.24 20.75 16.5758 20.75 16.99C20.75 17.4043 20.4142 17.74 20 17.74H18.5347C18.3963 18.4486 18.0633 19.1091 17.5643 19.6347C16.8912 20.3438 15.9697 20.75 15 20.75C14.0304 20.75 13.1088 20.3438 12.4357 19.6347ZM17.1072 16.99C17.1072 16.688 17.0506 16.3897 16.9417 16.1126C16.8327 15.8356 16.674 15.5863 16.4764 15.378C16.2788 15.1699 16.0463 15.007 15.7934 14.8966C15.5406 14.7863 15.2711 14.7301 15 14.7301C14.7289 14.7301 14.4594 14.7863 14.2066 14.8966C13.9537 15.007 13.7212 15.1699 13.5237 15.378C13.326 15.5863 13.1673 15.8356 13.0583 16.1126C12.9494 16.3897 12.8929 16.688 12.8929 16.99C12.8929 17.6017 13.1239 18.1809 13.5237 18.6021C13.9222 19.0219 14.4541 19.25 15 19.25C15.5459 19.25 16.0778 19.0219 16.4764 18.6021C16.8762 18.1809 17.1072 17.6017 17.1072 16.99ZM14.9643 8.72424C14.9643 8.31003 15.3001 7.97424 15.7143 7.97424L20 7.97424C20.4142 7.97424 20.75 8.31003 20.75 8.72424C20.75 9.13846 20.4142 9.47424 20 9.47424L15.7143 9.47424C15.3001 9.47424 14.9643 9.13846 14.9643 8.72424Z" fill="black" fill-opacity="0.5"/>
</g>
<defs>
<clipPath id="clip0_21_118">
<rect width="25" height="25" fill="white" transform="translate(0 25) rotate(-90)"/>
</clipPath>
</defs>
</svg>
