<svg width="30" height="30" viewBox="0 0 20 22" fill="none" xmlns="http://www.w3.org/2000/svg">
<path fill-rule="evenodd" clip-rule="evenodd" d="M8.24333 2.07693C8.24322 2.07698 8.24344 2.07689 8.24333 2.07693L2.6701 4.35825C2.45305 4.44564 2.21522 4.64219 2.02868 4.91968C1.84201 5.19736 1.75 5.49169 1.75 5.72251V10.1125C1.75 14.6527 5.06243 18.9453 9.59831 20.1992C9.79854 20.2536 10.0215 20.2536 10.2217 20.1992C14.7576 18.9453 18.07 14.6527 18.07 10.1125H18.82L18.07 10.1108L18.08 5.72251C18.08 5.72226 18.08 5.72275 18.08 5.72251C18.0798 5.49449 17.9871 5.20028 17.7985 4.92111C17.6098 4.64178 17.3705 4.44416 17.1567 4.35696L11.5867 2.07693C11.5865 2.07685 11.5869 2.07701 11.5867 2.07693C10.5185 1.64132 9.31143 1.64125 8.24333 2.07693ZM19.57 10.1134C19.57 10.1137 19.57 10.1131 19.57 10.1134C19.5696 15.3524 15.7828 20.2189 10.6197 21.6454L10.6173 21.6461C10.1581 21.7713 9.66186 21.7713 9.20266 21.6461L9.20027 21.6454C4.03688 20.2188 0.25 15.3518 0.25 10.1125V5.72251C0.25 5.13332 0.467985 4.55265 0.783818 4.08283C1.09936 3.61345 1.55574 3.19051 2.10769 2.96766L7.67588 0.688405C9.1075 0.104305 10.7217 0.103981 12.1533 0.68808L17.7233 2.96805C18.2691 3.19094 18.7253 3.61348 19.0415 4.0814C19.3577 4.54943 19.58 5.13062 19.58 5.72251L19.58 5.72421L19.57 10.1134Z" fill="black"/>
</svg>
