<svg width="19" height="18" viewBox="0 0 19 18" fill="none" xmlns="http://www.w3.org/2000/svg">
<path fill-rule="evenodd" clip-rule="evenodd" d="M15.2157 0.0893562C17.0463 -0.366765 18.7037 1.29062 18.2476 3.12122C18.1378 3.56176 17.9102 3.96412 17.5892 4.28516L9.75581 12.1185C8.75839 13.116 7.17045 13.2038 6.06915 12.3224L6.28785 12.0491L6.01459 12.2678C5.1332 11.1665 5.22099 9.57857 6.21841 8.58115L14.0518 0.747767C14.3728 0.42673 14.7752 0.199125 15.2157 0.0893562ZM6.34373 11.4983C5.93056 10.7111 6.06361 9.72591 6.71339 9.07613L14.5468 1.24274C14.778 1.01155 15.0677 0.847639 15.385 0.768589C16.7033 0.440115 17.8968 1.63368 17.5684 2.95197C17.4893 3.26923 17.3254 3.55899 17.0942 3.79019L9.26083 11.6236C8.61106 12.2733 7.62582 12.4064 6.83871 11.9932L14.2966 4.53535L13.8016 4.04038L6.34373 11.4983ZM3.67352 10.1431C3.59708 9.96067 3.44666 9.81932 3.25981 9.75434C2.64972 9.5422 2.10446 10.2027 2.42834 10.7616L3.18588 12.0687C3.63071 12.8363 3.50372 13.807 2.87642 14.4343L1.8111 15.4996C1.52771 15.783 1.52771 16.2425 1.8111 16.5259C2.09449 16.8092 2.55395 16.8092 2.83734 16.5259L3.85832 15.5049C4.51206 14.8511 5.52104 14.7124 6.32692 15.1656L7.78759 15.9868C8.28346 16.2656 8.87163 15.8139 8.73021 15.2629C8.68132 15.0724 8.54837 14.9146 8.36897 14.834L6.21272 13.8659C5.43742 13.5178 4.8234 12.888 4.49503 12.1042L3.67352 10.1431ZM3.48971 9.09317C3.86434 9.22344 4.16591 9.50685 4.31915 9.87267L5.14067 11.8337C5.40042 12.4538 5.88614 12.952 6.49944 13.2273L8.65569 14.1954C9.02941 14.3632 9.3064 14.6921 9.40823 15.0889C9.70285 16.2368 8.47756 17.1778 7.44452 16.597L5.98385 15.7757C5.45155 15.4764 4.7851 15.568 4.35329 15.9999L3.33231 17.0208C2.77556 17.5776 1.87288 17.5776 1.31612 17.0208C0.759371 16.4641 0.759371 15.5614 1.31612 15.0047L2.38144 13.9393C2.78441 13.5364 2.86599 12.9128 2.58024 12.4197L1.8227 11.1126C1.17335 9.99211 2.26653 8.66785 3.48971 9.09317Z" fill="white" fill-opacity="0.85"/>
</svg>
