<svg width="30" height="30" viewBox="0 0 30 30" fill="none" xmlns="http://www.w3.org/2000/svg">
<g style="mix-blend-mode:multiply" opacity="0.5" clip-path="url(#clip0_62_78)">
<path d="M16.7427 19.934L5.03432 8.22571C4.71233 7.90372 4.47498 7.50708 4.34343 7.07113C3.70708 4.96235 5.67528 2.99415 7.78405 3.6305C8.22 3.76205 8.61664 3.9994 8.93864 4.32139L20.647 16.0297C21.7174 17.1001 21.8226 18.8003 20.8924 19.9945L20.8114 20.0985L20.7075 20.1795C19.5132 21.1097 17.8131 21.0044 16.7427 19.934Z" fill="white"/>
<path d="M21.0228 22.0159L18.335 23.0127C17.897 23.1752 17.561 23.5343 17.4281 23.9822C17.0522 25.249 18.3945 26.3386 19.5569 25.7103L21.2501 24.7952C22.1382 24.3152 23.2362 24.4755 23.9502 25.1894L25.653 26.8923C26.1921 27.4313 27.0661 27.4313 27.6052 26.8923C28.1443 26.3532 28.1443 25.4792 27.6052 24.9401L25.9589 23.2938C25.2092 22.5441 25.033 21.3946 25.5236 20.4548L26.5075 18.5702C27.0579 17.5159 26.1394 16.2947 24.9738 16.531C24.5081 16.6254 24.1209 16.9476 23.9435 17.3885L22.7627 20.323C22.4471 21.1072 21.8154 21.7219 21.0228 22.0159Z" fill="white"/>
<path fill-rule="evenodd" clip-rule="evenodd" d="M3.86477 7.21557C3.11317 4.72488 5.43783 2.40022 7.92852 3.15182C8.44342 3.3072 8.9119 3.58753 9.29221 3.96783L21.0005 15.6762C22.2493 16.925 22.3721 18.9085 21.2869 20.3018L21.1677 20.4548L21.0147 20.5739C19.6214 21.6592 17.6379 21.5364 16.3891 20.2876L4.68078 8.57926C4.30048 8.19895 4.02014 7.73047 3.86477 7.21557ZM7.63962 4.10918C5.91277 3.58808 4.30103 5.19982 4.82213 6.92667C4.92985 7.28367 5.12421 7.60847 5.38789 7.87215L17.0962 19.5805C17.8825 20.3668 19.0766 20.5281 20.0302 20.0244L9.2967 9.29086L10.0038 8.58375L20.7373 19.3173C21.2411 18.3636 21.0797 17.1696 20.2934 16.3833L8.5851 4.67494C8.32142 4.41126 7.99662 4.2169 7.63962 4.10918ZM18.5089 23.4815C18.2184 23.5892 17.9956 23.8274 17.9074 24.1244C17.6582 24.9646 18.5483 25.6871 19.3192 25.2705L21.0123 24.3554C22.095 23.7702 23.4335 23.9656 24.3037 24.8358L26.0066 26.5387C26.3504 26.8825 26.9079 26.8825 27.2517 26.5387C27.5955 26.1949 27.5955 25.6375 27.2517 25.2937L25.6053 23.6473C24.7012 22.7432 24.4887 21.3568 25.0804 20.2234L26.0643 18.3388C26.42 17.6575 25.8264 16.8683 25.0732 17.021C24.7722 17.082 24.522 17.2902 24.4074 17.5752L23.2266 20.5096C22.8584 21.4246 22.1213 22.1417 21.1967 22.4846L18.5089 23.4815ZM16.9487 23.84C17.1264 23.2412 17.5756 22.7611 18.1611 22.5439L20.8489 21.5471C21.5094 21.3021 22.0359 20.7898 22.2989 20.1363L23.4797 17.2019C23.7198 16.605 24.2439 16.1688 24.8745 16.0409C26.4525 15.721 27.6959 17.3743 26.9508 18.8016L25.9669 20.6862C25.5773 21.4323 25.7172 22.345 26.3124 22.9402L27.9588 24.5866C28.6931 25.3209 28.6931 26.5115 27.9588 27.2458C27.2244 27.9802 26.0338 27.9802 25.2995 27.2458L23.5966 25.5429C23.0391 24.9854 22.1815 24.8602 21.4878 25.2351L19.7947 26.1502C18.2406 26.9901 16.4462 25.5335 16.9487 23.84Z" fill="black"/>
<path d="M10.066 16.7427L21.7743 5.03432C22.0963 4.71233 22.493 4.47498 22.9289 4.34343C25.0377 3.70708 27.0059 5.67528 26.3695 7.78405C26.238 8.22 26.0006 8.61664 25.6786 8.93864L13.9703 20.647C12.8999 21.7174 11.1998 21.8226 10.0055 20.8924L9.90153 20.8114L9.82054 20.7075C8.89034 19.5132 8.99559 17.8131 10.066 16.7427Z" fill="white"/>
<path d="M7.98418 21.0228L6.98733 18.335C6.82488 17.897 6.46569 17.561 6.01782 17.4281C4.75098 17.0522 3.66139 18.3945 4.28969 19.5569L5.20478 21.2501C5.68483 22.1382 5.52455 23.2362 4.81065 23.9502L3.10776 25.653C2.56869 26.1921 2.56869 27.0661 3.10776 27.6052C3.64683 28.1443 4.52084 28.1443 5.05992 27.6052L6.70625 25.9589C7.45591 25.2092 8.60545 25.033 9.54527 25.5236L11.4298 26.5075C12.4841 27.0579 13.7054 26.1394 13.4691 24.9738C13.3746 24.5081 13.0524 24.1209 12.6115 23.9435L9.67706 22.7627C8.89283 22.4471 8.27813 21.8154 7.98418 21.0228Z" fill="white"/>
<path fill-rule="evenodd" clip-rule="evenodd" d="M22.7845 3.86477C25.2751 3.11317 27.5998 5.43783 26.8482 7.92852C26.6928 8.44342 26.4125 8.9119 26.0322 9.29221L14.3239 21.0005C13.0751 22.2493 11.0916 22.3721 9.69827 21.2869L9.54526 21.1677L9.42608 21.0147C8.34085 19.6214 8.46364 17.6379 9.71244 16.3891L21.4208 4.68078C21.8011 4.30048 22.2696 4.02014 22.7845 3.86477ZM25.8909 7.63962C26.412 5.91277 24.8002 4.30103 23.0734 4.82213C22.7164 4.92985 22.3916 5.12421 22.1279 5.38789L10.4195 17.0962C9.63326 17.8825 9.47192 19.0766 9.97567 20.0302L20.7092 9.2967L21.4163 10.0038L10.6828 20.7373C11.6364 21.2411 12.8305 21.0797 13.6168 20.2934L25.3251 8.5851C25.5888 8.32142 25.7831 7.99662 25.8909 7.63962ZM6.51854 18.5089C6.4108 18.2184 6.17261 17.9956 5.87559 17.9074C5.03547 17.6582 4.31289 18.5483 4.72956 19.3192L5.64465 21.0123C6.22982 22.095 6.03444 23.4335 5.1642 24.3037L3.46131 26.0066C3.1175 26.3504 3.1175 26.9079 3.46132 27.2517C3.80513 27.5955 4.36255 27.5955 4.70637 27.2517L6.3527 25.6053C7.25682 24.7012 8.64321 24.4887 9.77667 25.0804L11.6612 26.0643C12.3425 26.42 13.1317 25.8264 12.979 25.0732C12.918 24.7722 12.7098 24.522 12.4249 24.4074L9.49041 23.2266C8.57548 22.8584 7.85833 22.1213 7.51539 21.1967L6.51854 18.5089ZM6.16005 16.9487C6.75879 17.1264 7.23896 17.5756 7.45613 18.1611L8.45298 20.8489C8.69794 21.5094 9.21019 22.0359 9.86371 22.2989L12.7982 23.4797C13.3951 23.7198 13.8313 24.2439 13.9591 24.8745C14.279 26.4525 12.6257 27.6959 11.1985 26.9508L9.31387 25.9669C8.5677 25.5773 7.65501 25.7172 7.05981 26.3124L5.41347 27.9588C4.67914 28.6931 3.48854 28.6931 2.75421 27.9588C2.01987 27.2244 2.01987 26.0338 2.75421 25.2995L4.4571 23.5966C5.01466 23.0391 5.13984 22.1815 4.76492 21.4878L3.84983 19.7947C3.00989 18.2406 4.4665 16.4462 6.16005 16.9487Z" fill="black"/>
</g>
<defs>
<clipPath id="clip0_62_78">
<rect width="30" height="30" fill="white"/>
</clipPath>
</defs>
</svg>
